<mxfile host="app.diagrams.net" modified="2024-03-09T18:38:55.945Z" agent="Mozilla/5.0 (Windows NT 10.0; Win64; x64) AppleWebKit/537.36 (KHTML, like Gecko) Chrome/122.0.0.0 Safari/537.36" etag="nDQJKIGAFSf9l-T5Zndk" version="24.0.3" type="device">
  <diagram id="klzjwjYF-y9pa63VjA9P" name="Page-1">
    <mxGraphModel dx="882" dy="578" grid="1" gridSize="10" guides="1" tooltips="1" connect="1" arrows="1" fold="1" page="1" pageScale="1" pageWidth="850" pageHeight="1100" math="0" shadow="0">
      <root>
        <mxCell id="0" />
        <mxCell id="1" parent="0" />
        <mxCell id="wvvWRzQGJ0MFBprTCYH--11" style="edgeStyle=orthogonalEdgeStyle;rounded=0;orthogonalLoop=1;jettySize=auto;html=1;exitX=0.5;exitY=1;exitDx=0;exitDy=0;entryX=0.5;entryY=0;entryDx=0;entryDy=0;" edge="1" parent="1" source="wvvWRzQGJ0MFBprTCYH--1" target="wvvWRzQGJ0MFBprTCYH--2">
          <mxGeometry relative="1" as="geometry" />
        </mxCell>
        <mxCell id="wvvWRzQGJ0MFBprTCYH--12" style="edgeStyle=orthogonalEdgeStyle;rounded=0;orthogonalLoop=1;jettySize=auto;html=1;exitX=1;exitY=0.5;exitDx=0;exitDy=0;entryX=0;entryY=0.5;entryDx=0;entryDy=0;" edge="1" parent="1" source="wvvWRzQGJ0MFBprTCYH--1" target="wvvWRzQGJ0MFBprTCYH--9">
          <mxGeometry relative="1" as="geometry" />
        </mxCell>
        <mxCell id="wvvWRzQGJ0MFBprTCYH--1" value="User" style="rounded=1;whiteSpace=wrap;html=1;" vertex="1" parent="1">
          <mxGeometry x="320" y="80" width="120" height="60" as="geometry" />
        </mxCell>
        <mxCell id="wvvWRzQGJ0MFBprTCYH--14" style="edgeStyle=orthogonalEdgeStyle;rounded=0;orthogonalLoop=1;jettySize=auto;html=1;exitX=0;exitY=0.5;exitDx=0;exitDy=0;entryX=0.5;entryY=0;entryDx=0;entryDy=0;" edge="1" parent="1" source="wvvWRzQGJ0MFBprTCYH--2" target="wvvWRzQGJ0MFBprTCYH--3">
          <mxGeometry relative="1" as="geometry" />
        </mxCell>
        <mxCell id="wvvWRzQGJ0MFBprTCYH--15" style="edgeStyle=orthogonalEdgeStyle;rounded=0;orthogonalLoop=1;jettySize=auto;html=1;exitX=1;exitY=0.5;exitDx=0;exitDy=0;" edge="1" parent="1" source="wvvWRzQGJ0MFBprTCYH--2" target="wvvWRzQGJ0MFBprTCYH--4">
          <mxGeometry relative="1" as="geometry" />
        </mxCell>
        <mxCell id="wvvWRzQGJ0MFBprTCYH--2" value="Load balancer" style="rounded=1;whiteSpace=wrap;html=1;" vertex="1" parent="1">
          <mxGeometry x="320" y="200" width="120" height="60" as="geometry" />
        </mxCell>
        <mxCell id="wvvWRzQGJ0MFBprTCYH--17" style="edgeStyle=orthogonalEdgeStyle;rounded=0;orthogonalLoop=1;jettySize=auto;html=1;exitX=1;exitY=0.5;exitDx=0;exitDy=0;" edge="1" parent="1" source="wvvWRzQGJ0MFBprTCYH--3" target="wvvWRzQGJ0MFBprTCYH--7">
          <mxGeometry relative="1" as="geometry" />
        </mxCell>
        <mxCell id="wvvWRzQGJ0MFBprTCYH--18" style="edgeStyle=orthogonalEdgeStyle;rounded=0;orthogonalLoop=1;jettySize=auto;html=1;exitX=0;exitY=0.5;exitDx=0;exitDy=0;entryX=0.5;entryY=0;entryDx=0;entryDy=0;" edge="1" parent="1" source="wvvWRzQGJ0MFBprTCYH--3" target="wvvWRzQGJ0MFBprTCYH--6">
          <mxGeometry relative="1" as="geometry" />
        </mxCell>
        <mxCell id="wvvWRzQGJ0MFBprTCYH--3" value="Navigation service" style="rounded=1;whiteSpace=wrap;html=1;" vertex="1" parent="1">
          <mxGeometry x="200" y="320" width="120" height="60" as="geometry" />
        </mxCell>
        <mxCell id="wvvWRzQGJ0MFBprTCYH--16" style="edgeStyle=orthogonalEdgeStyle;rounded=0;orthogonalLoop=1;jettySize=auto;html=1;exitX=1;exitY=0.5;exitDx=0;exitDy=0;entryX=0.5;entryY=0;entryDx=0;entryDy=0;" edge="1" parent="1" source="wvvWRzQGJ0MFBprTCYH--4" target="wvvWRzQGJ0MFBprTCYH--8">
          <mxGeometry relative="1" as="geometry" />
        </mxCell>
        <mxCell id="wvvWRzQGJ0MFBprTCYH--4" value="Location service" style="rounded=1;whiteSpace=wrap;html=1;" vertex="1" parent="1">
          <mxGeometry x="440" y="320" width="120" height="60" as="geometry" />
        </mxCell>
        <mxCell id="wvvWRzQGJ0MFBprTCYH--6" value="Geohashing DB" style="rounded=1;whiteSpace=wrap;html=1;" vertex="1" parent="1">
          <mxGeometry x="80" y="440" width="120" height="60" as="geometry" />
        </mxCell>
        <mxCell id="wvvWRzQGJ0MFBprTCYH--7" value="Routing tiles (Object storage)" style="rounded=1;whiteSpace=wrap;html=1;" vertex="1" parent="1">
          <mxGeometry x="320" y="440" width="120" height="60" as="geometry" />
        </mxCell>
        <mxCell id="wvvWRzQGJ0MFBprTCYH--8" value="User location DB" style="rounded=1;whiteSpace=wrap;html=1;" vertex="1" parent="1">
          <mxGeometry x="560" y="440" width="120" height="60" as="geometry" />
        </mxCell>
        <mxCell id="wvvWRzQGJ0MFBprTCYH--13" style="edgeStyle=orthogonalEdgeStyle;rounded=0;orthogonalLoop=1;jettySize=auto;html=1;exitX=0.5;exitY=1;exitDx=0;exitDy=0;entryX=0.5;entryY=0;entryDx=0;entryDy=0;" edge="1" parent="1" source="wvvWRzQGJ0MFBprTCYH--9" target="wvvWRzQGJ0MFBprTCYH--10">
          <mxGeometry relative="1" as="geometry" />
        </mxCell>
        <mxCell id="wvvWRzQGJ0MFBprTCYH--9" value="CDN" style="rounded=1;whiteSpace=wrap;html=1;" vertex="1" parent="1">
          <mxGeometry x="640" y="80" width="120" height="60" as="geometry" />
        </mxCell>
        <mxCell id="wvvWRzQGJ0MFBprTCYH--10" value="Precomputed map images" style="rounded=1;whiteSpace=wrap;html=1;" vertex="1" parent="1">
          <mxGeometry x="640" y="200" width="120" height="60" as="geometry" />
        </mxCell>
      </root>
    </mxGraphModel>
  </diagram>
</mxfile>
